# xmcd
#
# Track frame offsets: 
#        150
#        14000
#        26270
#        39560
#        52825
#        66227
#        75967
#        88522
#        97985
#        110580
#        123907
#        137297
#        151162
#        165780
#        177785
#        188770
#        202192
#        214792
#
# Disc length: 3015 seconds
#
# Revision: 4
# Processed by: cddbd v1.4PL0 Copyright (c) Steve Scherf et al.
# Submitted via: ExactAudioCopy v0.90b4
#
DISCID=d70bc512
DTITLE=Howlin' Wolf - The Wolf Is At Your Door
DYEAR=1992
DGENRE=
TTITLE0=Moanin' at Midnight
TTITLE1=How Many More Years
TTITLE2=The Wolf Is At Your Door
TTITLE3=California Blues
TTITLE4=California Boogie
TTITLE5=Look-A-Here Baby
TTITLE6=Howlin' Wolf Boogie
TTITLE7=Smile at Me
TTITLE8=Getting Old and Gray
TTITLE9=Mr. Highway Man
TTITLE10=My Baby Walked Off
TTITLE11=Champagne Velvet Blues (C.V. Wine Blues)
TTITLE12=My Troubles and Me
TTITLE13=Chocolate Drop
TTITLE14=Highway Man
TTITLE15=Everybody Is in the Mood
TTITLE16=Bluebird
TTITLE17=Saddle My Pony
EXTD=
EXTT0=
EXTT1=
EXTT2=
EXTT3=
EXTT4=
EXTT5=
EXTT6=
EXTT7=
EXTT8=
EXTT9=
EXTT10=
EXTT11=
EXTT12=
EXTT13=
EXTT14=
EXTT15=
EXTT16=
EXTT17=
PLAYORDER=
